<svg xmlns="http://www.w3.org/2000/svg" width="900" height="600" viewBox="0 0 900 600">
  <rect x="40" y="30" width="820" height="540" rx="18" fill="#5C3A21"/>
  <rect x="60" y="50" width="780" height="500" rx="12" fill="#6B4A2A"/>
  <g stroke="#4A3228" stroke-width="3" opacity="0.4">
    <line x1="90" y1="90" x2="810" y2="90"/>
    <line x1="90" y1="510" x2="810" y2="510"/>
    <line x1="90" y1="300" x2="810" y2="300"/>
  </g>
  <g transform="rotate(-3 220 170)">
    <rect x="120" y="120" width="200" height="110" rx="4" fill="#F2E3C5"/>
    <rect x="120" y="120" width="200" height="110" rx="4" fill="none" stroke="#C9BFA0" stroke-width="3"/>
    <circle cx="220" cy="132" r="5" fill="#8A8A85"/>
    <line x1="138" y1="148" x2="300" y2="148" stroke="#B8A890" stroke-width="3"/>
    <line x1="138" y1="166" x2="280" y2="166" stroke="#B8A890" stroke-width="3"/>
    <line x1="138" y1="184" x2="260" y2="184" stroke="#B8A890" stroke-width="3"/>
  </g>
  <g transform="rotate(2 450 170)">
    <rect x="350" y="120" width="200" height="110" rx="4" fill="#E8D5AC"/>
    <rect x="350" y="120" width="200" height="110" rx="4" fill="none" stroke="#C9BFA0" stroke-width="3"/>
    <circle cx="450" cy="132" r="5" fill="#8A8A85"/>
    <line x1="368" y1="148" x2="530" y2="148" stroke="#B8A890" stroke-width="3"/>
    <line x1="368" y1="166" x2="510" y2="166" stroke="#B8A890" stroke-width="3"/>
    <line x1="368" y1="184" x2="490" y2="184" stroke="#B8A890" stroke-width="3"/>
  </g>
  <g transform="rotate(-2 680 170)">
    <rect x="580" y="120" width="200" height="110" rx="4" fill="#F2E3C5"/>
    <rect x="580" y="120" width="200" height="110" rx="4" fill="none" stroke="#C9BFA0" stroke-width="3"/>
    <circle cx="680" cy="132" r="5" fill="#8A8A85"/>
    <line x1="598" y1="148" x2="760" y2="148" stroke="#B8A890" stroke-width="3"/>
    <line x1="598" y1="166" x2="740" y2="166" stroke="#B8A890" stroke-width="3"/>
    <line x1="598" y1="184" x2="720" y2="184" stroke="#B8A890" stroke-width="3"/>
  </g>
</svg>
